<svg width="32" height="32" viewBox="0 0 32 32" fill="none" xmlns="http://www.w3.org/2000/svg">
  <!-- Background -->
  <rect width="32" height="32" rx="4" fill="#87ceeb"/>
  
  <!-- Game controller icon -->
  <path d="M8 12C8 10.8954 8.89543 10 10 10H22C23.1046 10 24 10.8954 24 12V18C24 19.1046 23.1046 20 22 20H20L18 22H14L12 20H10C8.89543 20 8 19.1046 8 18V12Z" fill="#ffffff"/>
  
  <!-- D-pad -->
  <rect x="11" y="14" width="2" height="4" fill="#87ceeb"/>
  <rect x="10" y="15" width="4" height="2" fill="#87ceeb"/>
  
  <!-- Buttons -->
  <circle cx="19" cy="14" r="1" fill="#87ceeb"/>
  <circle cx="21" cy="16" r="1" fill="#87ceeb"/>
  
  <!-- Running figure -->
  <path d="M25 8L27 6L28 8L26 10L25 8Z" fill="#ff6b6b"/>
  <path d="M4 24L6 22L7 24L5 26L4 24Z" fill="#4ecdc4"/>
</svg>